<mxfile host="app.diagrams.net" agent="Mozilla/5.0 (Windows NT 10.0; Win64; x64) AppleWebKit/537.36 (KHTML, like Gecko) Chrome/129.0.0.0 Safari/537.36" version="24.8.6" pages="3">
  <diagram id="0D8ftsyHvNtCDJ5dZ-QF" name=" cas standard">
    <mxGraphModel dx="1434" dy="746" grid="1" gridSize="10" guides="1" tooltips="1" connect="1" arrows="1" fold="1" page="1" pageScale="1" pageWidth="1654" pageHeight="1169" math="0" shadow="0">
      <root>
        <mxCell id="0" />
        <mxCell id="1" parent="0" />
        <mxCell id="8QPobty-ga2-9RG2W2WC-4" value="" style="endArrow=none;dashed=1;html=1;dashPattern=1 3;strokeWidth=2;rounded=0;fontColor=#E1D5E7;strokeColor=#9933FF;" parent="1" source="8QPobty-ga2-9RG2W2WC-21" edge="1">
          <mxGeometry width="50" height="50" relative="1" as="geometry">
            <mxPoint x="411.25" y="474.5" as="sourcePoint" />
            <mxPoint x="910" y="475" as="targetPoint" />
          </mxGeometry>
        </mxCell>
        <mxCell id="8QPobty-ga2-9RG2W2WC-5" value="" style="endArrow=none;dashed=1;html=1;dashPattern=1 3;strokeWidth=2;rounded=0;fontColor=#E1D5E7;strokeColor=#9933FF;" parent="1" source="8QPobty-ga2-9RG2W2WC-33" edge="1">
          <mxGeometry width="50" height="50" relative="1" as="geometry">
            <mxPoint x="410" y="398.5" as="sourcePoint" />
            <mxPoint x="920" y="399" as="targetPoint" />
          </mxGeometry>
        </mxCell>
        <mxCell id="8QPobty-ga2-9RG2W2WC-6" value="" style="edgeStyle=orthogonalEdgeStyle;rounded=0;html=1;jettySize=auto;orthogonalLoop=1;plain-blue;endArrow=none;endFill=0;strokeWidth=4;strokeColor=#000000;" parent="1" source="8QPobty-ga2-9RG2W2WC-8" target="8QPobty-ga2-9RG2W2WC-10" edge="1">
          <mxGeometry x="504.5" y="320" as="geometry" />
        </mxCell>
        <mxCell id="8QPobty-ga2-9RG2W2WC-7" style="edgeStyle=orthogonalEdgeStyle;curved=1;rounded=0;html=1;exitX=1;exitY=0.5;exitPerimeter=0;entryX=0;entryY=0.5;entryPerimeter=0;endArrow=none;endFill=0;jettySize=auto;orthogonalLoop=1;strokeWidth=4;fontSize=15;" parent="1" source="8QPobty-ga2-9RG2W2WC-8" target="8QPobty-ga2-9RG2W2WC-16" edge="1">
          <mxGeometry relative="1" as="geometry" />
        </mxCell>
        <mxCell id="8QPobty-ga2-9RG2W2WC-8" value="" style="verticalLabelPosition=bottom;verticalAlign=top;html=1;strokeWidth=4;shape=mxgraph.flowchart.on-page_reference;plain-blue;gradientColor=none;fillColor=#B5E3Fe;strokeColor=#000000;" parent="1" vertex="1">
          <mxGeometry x="420" y="305" width="30" height="30" as="geometry" />
        </mxCell>
        <mxCell id="8QPobty-ga2-9RG2W2WC-9" value="" style="edgeStyle=orthogonalEdgeStyle;curved=1;rounded=0;orthogonalLoop=1;jettySize=auto;html=1;endArrow=none;endFill=0;strokeWidth=4;fontFamily=Courier New;fontSize=16;" parent="1" source="8QPobty-ga2-9RG2W2WC-10" edge="1">
          <mxGeometry relative="1" as="geometry">
            <mxPoint x="930" y="320" as="targetPoint" />
          </mxGeometry>
        </mxCell>
        <mxCell id="8QPobty-ga2-9RG2W2WC-10" value="" style="verticalLabelPosition=bottom;verticalAlign=top;html=1;strokeWidth=4;shape=mxgraph.flowchart.on-page_reference;plain-blue;gradientColor=none;strokeColor=#000000;" parent="1" vertex="1">
          <mxGeometry x="764.5" y="305" width="30" height="30" as="geometry" />
        </mxCell>
        <mxCell id="8QPobty-ga2-9RG2W2WC-13" value="" style="edgeStyle=orthogonalEdgeStyle;rounded=0;html=1;jettySize=auto;orthogonalLoop=1;strokeWidth=4;endArrow=none;endFill=0;exitX=1;exitY=0.5;exitDx=0;exitDy=0;startArrow=none;" parent="1" source="8QPobty-ga2-9RG2W2WC-27" target="8QPobty-ga2-9RG2W2WC-8" edge="1">
          <mxGeometry x="404.5" y="320" as="geometry">
            <mxPoint x="360" y="320" as="sourcePoint" />
          </mxGeometry>
        </mxCell>
        <mxCell id="8QPobty-ga2-9RG2W2WC-14" value="develop" style="text;html=1;strokeColor=#10739e;fillColor=#b1ddf0;align=center;verticalAlign=middle;whiteSpace=wrap;overflow=hidden;fontSize=14;fontStyle=1;fontFamily=Courier New;fontColor=#000000;" parent="1" vertex="1">
          <mxGeometry x="40" y="310" width="120" height="20" as="geometry" />
        </mxCell>
        <mxCell id="8QPobty-ga2-9RG2W2WC-15" style="edgeStyle=orthogonalEdgeStyle;curved=1;rounded=0;html=1;exitX=1;exitY=0.5;exitPerimeter=0;entryX=0;entryY=0.5;entryPerimeter=0;endArrow=none;endFill=0;jettySize=auto;orthogonalLoop=1;strokeWidth=4;fontSize=15;" parent="1" source="8QPobty-ga2-9RG2W2WC-16" target="8QPobty-ga2-9RG2W2WC-18" edge="1">
          <mxGeometry relative="1" as="geometry" />
        </mxCell>
        <mxCell id="8QPobty-ga2-9RG2W2WC-16" value="" style="verticalLabelPosition=bottom;verticalAlign=top;html=1;strokeWidth=4;shape=mxgraph.flowchart.on-page_reference;plain-purple;gradientColor=none;strokeColor=#000000;fillColor=#9933FF;" parent="1" vertex="1">
          <mxGeometry x="548.75" y="460" width="30" height="30" as="geometry" />
        </mxCell>
        <mxCell id="8QPobty-ga2-9RG2W2WC-17" style="edgeStyle=orthogonalEdgeStyle;curved=1;rounded=0;html=1;exitX=1;exitY=0.5;exitPerimeter=0;entryX=0;entryY=0.5;entryPerimeter=0;endArrow=none;endFill=0;jettySize=auto;orthogonalLoop=1;strokeWidth=4;fontSize=15;" parent="1" source="8QPobty-ga2-9RG2W2WC-18" target="8QPobty-ga2-9RG2W2WC-20" edge="1">
          <mxGeometry relative="1" as="geometry" />
        </mxCell>
        <mxCell id="8QPobty-ga2-9RG2W2WC-18" value="" style="verticalLabelPosition=bottom;verticalAlign=top;html=1;strokeWidth=4;shape=mxgraph.flowchart.on-page_reference;plain-purple;gradientColor=none;strokeColor=#000000;fillColor=#9933FF;" parent="1" vertex="1">
          <mxGeometry x="620.75" y="460" width="30" height="30" as="geometry" />
        </mxCell>
        <mxCell id="8QPobty-ga2-9RG2W2WC-19" style="edgeStyle=orthogonalEdgeStyle;curved=1;rounded=0;html=1;exitX=1;exitY=0.5;exitPerimeter=0;entryX=0;entryY=0.5;entryPerimeter=0;endArrow=none;endFill=0;jettySize=auto;orthogonalLoop=1;strokeWidth=4;fontSize=15;" parent="1" source="8QPobty-ga2-9RG2W2WC-20" target="8QPobty-ga2-9RG2W2WC-10" edge="1">
          <mxGeometry relative="1" as="geometry" />
        </mxCell>
        <mxCell id="8QPobty-ga2-9RG2W2WC-20" value="" style="verticalLabelPosition=bottom;verticalAlign=top;html=1;strokeWidth=4;shape=mxgraph.flowchart.on-page_reference;plain-purple;gradientColor=none;strokeColor=#000000;fillColor=#9933FF;" parent="1" vertex="1">
          <mxGeometry x="693.75" y="460" width="30" height="30" as="geometry" />
        </mxCell>
        <mxCell id="8QPobty-ga2-9RG2W2WC-21" value="release/2.0.0" style="text;html=1;strokeColor=#3700CC;fillColor=#6a00ff;align=left;verticalAlign=middle;whiteSpace=wrap;overflow=hidden;fontSize=14;fontStyle=1;fontFamily=Courier New;fontColor=#ffffff;" parent="1" vertex="1">
          <mxGeometry x="41.25" y="465" width="120" height="20" as="geometry" />
        </mxCell>
        <mxCell id="8QPobty-ga2-9RG2W2WC-25" value="" style="edgeStyle=orthogonalEdgeStyle;shape=connector;curved=1;rounded=0;orthogonalLoop=1;jettySize=auto;html=1;labelBackgroundColor=default;fontFamily=Helvetica;fontSize=15;fontColor=default;endArrow=none;endFill=0;strokeColor=default;strokeWidth=4;entryX=0;entryY=0.5;entryDx=0;entryDy=0;entryPerimeter=0;exitX=1.033;exitY=0.6;exitDx=0;exitDy=0;exitPerimeter=0;" parent="1" source="8QPobty-ga2-9RG2W2WC-27" target="8QPobty-ga2-9RG2W2WC-30" edge="1">
          <mxGeometry relative="1" as="geometry">
            <mxPoint x="205" y="415" as="targetPoint" />
            <Array as="points">
              <mxPoint x="270" y="323" />
              <mxPoint x="270" y="399" />
            </Array>
          </mxGeometry>
        </mxCell>
        <mxCell id="8QPobty-ga2-9RG2W2WC-27" value="" style="verticalLabelPosition=bottom;verticalAlign=top;html=1;strokeWidth=4;shape=mxgraph.flowchart.on-page_reference;plain-blue;gradientColor=none;fillColor=#B5E3Fe;strokeColor=#000000;" parent="1" vertex="1">
          <mxGeometry x="230" y="305" width="30" height="30" as="geometry" />
        </mxCell>
        <mxCell id="8QPobty-ga2-9RG2W2WC-28" value="" style="edgeStyle=orthogonalEdgeStyle;rounded=0;html=1;jettySize=auto;orthogonalLoop=1;strokeWidth=4;endArrow=none;endFill=0;exitX=1;exitY=0.5;exitDx=0;exitDy=0;" parent="1" source="8QPobty-ga2-9RG2W2WC-14" target="8QPobty-ga2-9RG2W2WC-27" edge="1">
          <mxGeometry x="404.5" y="320" as="geometry">
            <mxPoint x="160" y="320" as="sourcePoint" />
            <mxPoint x="474.5" y="320" as="targetPoint" />
          </mxGeometry>
        </mxCell>
        <mxCell id="8QPobty-ga2-9RG2W2WC-29" style="edgeStyle=orthogonalEdgeStyle;curved=1;rounded=0;html=1;exitX=1;exitY=0.5;exitPerimeter=0;entryX=0;entryY=0.5;entryPerimeter=0;endArrow=none;endFill=0;jettySize=auto;orthogonalLoop=1;strokeWidth=4;fontSize=15;" parent="1" source="8QPobty-ga2-9RG2W2WC-30" target="8QPobty-ga2-9RG2W2WC-32" edge="1">
          <mxGeometry relative="1" as="geometry" />
        </mxCell>
        <mxCell id="8QPobty-ga2-9RG2W2WC-30" value="" style="verticalLabelPosition=bottom;verticalAlign=top;html=1;strokeWidth=4;shape=mxgraph.flowchart.on-page_reference;strokeColor=#2D7600;fillColor=#60a917;fontColor=#ffffff;" parent="1" vertex="1">
          <mxGeometry x="295" y="384" width="30" height="30" as="geometry" />
        </mxCell>
        <mxCell id="8QPobty-ga2-9RG2W2WC-31" value="" style="edgeStyle=orthogonalEdgeStyle;shape=connector;curved=1;rounded=0;orthogonalLoop=1;jettySize=auto;html=1;labelBackgroundColor=default;fontFamily=Helvetica;fontSize=15;fontColor=default;endArrow=none;endFill=0;strokeColor=default;strokeWidth=4;entryX=0;entryY=0.5;entryDx=0;entryDy=0;entryPerimeter=0;" parent="1" source="8QPobty-ga2-9RG2W2WC-32" target="8QPobty-ga2-9RG2W2WC-8" edge="1">
          <mxGeometry relative="1" as="geometry">
            <mxPoint x="431.75" y="399" as="targetPoint" />
            <Array as="points">
              <mxPoint x="390" y="399" />
            </Array>
          </mxGeometry>
        </mxCell>
        <mxCell id="8QPobty-ga2-9RG2W2WC-32" value="" style="verticalLabelPosition=bottom;verticalAlign=top;html=1;strokeWidth=4;shape=mxgraph.flowchart.on-page_reference;strokeColor=#2D7600;fillColor=#60a917;fontColor=#ffffff;" parent="1" vertex="1">
          <mxGeometry x="345" y="384" width="30" height="30" as="geometry" />
        </mxCell>
        <mxCell id="8QPobty-ga2-9RG2W2WC-33" value="feature/ajouter_fonction_a" style="text;html=1;strokeColor=#2D7600;fillColor=#60a917;align=left;verticalAlign=middle;whiteSpace=wrap;overflow=hidden;fontSize=14;fontStyle=1;fontFamily=Courier New;fontColor=#ffffff;" parent="1" vertex="1">
          <mxGeometry x="40" y="389" width="230" height="20" as="geometry" />
        </mxCell>
        <mxCell id="8QPobty-ga2-9RG2W2WC-35" value="" style="endArrow=none;dashed=1;html=1;dashPattern=1 3;strokeWidth=2;rounded=0;fontColor=#B85450;exitX=1;exitY=0.5;exitDx=0;exitDy=0;strokeColor=#666666;startArrow=none;" parent="1" source="8QPobty-ga2-9RG2W2WC-55" edge="1">
          <mxGeometry width="50" height="50" relative="1" as="geometry">
            <mxPoint x="161.25" y="50" as="sourcePoint" />
            <mxPoint x="348.25" y="50" as="targetPoint" />
          </mxGeometry>
        </mxCell>
        <mxCell id="8QPobty-ga2-9RG2W2WC-36" value="" style="edgeStyle=orthogonalEdgeStyle;curved=1;rounded=0;orthogonalLoop=1;jettySize=auto;html=1;" parent="1" source="8QPobty-ga2-9RG2W2WC-37" target="8QPobty-ga2-9RG2W2WC-42" edge="1">
          <mxGeometry relative="1" as="geometry" />
        </mxCell>
        <mxCell id="8QPobty-ga2-9RG2W2WC-37" value="Tag: 2.0.0" style="text;html=1;strokeColor=#666666;fillColor=#f5f5f5;align=center;verticalAlign=middle;whiteSpace=wrap;overflow=hidden;fontSize=14;fontColor=#333333;" parent="1" vertex="1">
          <mxGeometry x="675" y="40" width="70" height="20" as="geometry" />
        </mxCell>
        <mxCell id="8QPobty-ga2-9RG2W2WC-38" value="" style="endArrow=none;dashed=1;html=1;dashPattern=1 3;strokeWidth=2;rounded=0;fontColor=#B85450;exitX=1;exitY=0.5;exitDx=0;exitDy=0;strokeColor=#666666;startArrow=none;" parent="1" target="8QPobty-ga2-9RG2W2WC-37" edge="1">
          <mxGeometry width="50" height="50" relative="1" as="geometry">
            <mxPoint x="418.25" y="50" as="sourcePoint" />
            <mxPoint x="931.25" y="50" as="targetPoint" />
          </mxGeometry>
        </mxCell>
        <mxCell id="8QPobty-ga2-9RG2W2WC-41" value="" style="endArrow=none;dashed=1;html=1;dashPattern=1 3;strokeWidth=2;rounded=0;fontColor=#B85450;exitX=1;exitY=0.5;exitDx=0;exitDy=0;strokeColor=#808080;startArrow=none;" parent="1" source="8QPobty-ga2-9RG2W2WC-37" edge="1">
          <mxGeometry width="50" height="50" relative="1" as="geometry">
            <mxPoint x="745" y="50" as="sourcePoint" />
            <mxPoint x="911.25" y="50" as="targetPoint" />
          </mxGeometry>
        </mxCell>
        <mxCell id="8QPobty-ga2-9RG2W2WC-42" value="" style="shape=waypoint;sketch=0;size=6;pointerEvents=1;points=[];fillColor=none;resizable=0;rotatable=0;perimeter=centerPerimeter;snapToPoint=1;" parent="1" vertex="1">
          <mxGeometry x="688.75" y="440" width="40" height="40" as="geometry" />
        </mxCell>
        <mxCell id="8QPobty-ga2-9RG2W2WC-43" value="refs/tags" style="text;html=1;strokeColor=#666666;fillColor=#f5f5f5;align=left;verticalAlign=middle;whiteSpace=wrap;overflow=hidden;fontSize=14;fontStyle=1;fontFamily=Courier New;fontColor=#333333;" parent="1" vertex="1">
          <mxGeometry x="41.25" y="40" width="120" height="20" as="geometry" />
        </mxCell>
        <mxCell id="8QPobty-ga2-9RG2W2WC-51" value="master" style="text;html=1;strokeColor=#314354;fillColor=#647687;align=center;verticalAlign=middle;whiteSpace=wrap;overflow=hidden;fontSize=14;fontStyle=1;fontFamily=Courier New;fontColor=#ffffff;" parent="1" vertex="1">
          <mxGeometry x="40" y="220" width="120" height="20" as="geometry" />
        </mxCell>
        <mxCell id="8QPobty-ga2-9RG2W2WC-52" value="" style="endArrow=none;dashed=1;html=1;dashPattern=1 3;strokeWidth=2;rounded=0;fontColor=#B85450;exitX=1;exitY=0.5;exitDx=0;exitDy=0;strokeColor=#314354;fillColor=#647687;startArrow=none;" parent="1" source="8QPobty-ga2-9RG2W2WC-53" edge="1">
          <mxGeometry width="50" height="50" relative="1" as="geometry">
            <mxPoint x="171.2499999999999" y="229.51999999999998" as="sourcePoint" />
            <mxPoint x="941.25" y="229.51999999999998" as="targetPoint" />
          </mxGeometry>
        </mxCell>
        <mxCell id="8QPobty-ga2-9RG2W2WC-53" value="" style="verticalLabelPosition=bottom;verticalAlign=top;html=1;strokeWidth=4;shape=mxgraph.flowchart.on-page_reference;fillColor=#647687;strokeColor=#314354;fontColor=#ffffff;" parent="1" vertex="1">
          <mxGeometry x="185" y="215" width="30" height="30" as="geometry" />
        </mxCell>
        <mxCell id="8QPobty-ga2-9RG2W2WC-54" value="" style="edgeStyle=orthogonalEdgeStyle;shape=connector;curved=1;rounded=0;orthogonalLoop=1;jettySize=auto;html=1;labelBackgroundColor=default;fontFamily=Helvetica;fontSize=15;fontColor=default;endArrow=none;endFill=0;strokeColor=default;strokeWidth=4;entryX=0;entryY=0.5;entryDx=0;entryDy=0;entryPerimeter=0;exitX=0.5;exitY=1;exitDx=0;exitDy=0;exitPerimeter=0;" parent="1" source="8QPobty-ga2-9RG2W2WC-53" edge="1">
          <mxGeometry relative="1" as="geometry">
            <mxPoint x="230" y="316" as="targetPoint" />
            <Array as="points">
              <mxPoint x="200" y="316" />
            </Array>
            <mxPoint x="196" y="250" as="sourcePoint" />
          </mxGeometry>
        </mxCell>
        <mxCell id="8QPobty-ga2-9RG2W2WC-55" value="Tag: 1.0.0" style="text;html=1;strokeColor=#666666;fillColor=#f5f5f5;align=center;verticalAlign=middle;whiteSpace=wrap;overflow=hidden;fontSize=14;fontColor=#333333;" parent="1" vertex="1">
          <mxGeometry x="165" y="40" width="70" height="20" as="geometry" />
        </mxCell>
        <mxCell id="8QPobty-ga2-9RG2W2WC-56" value="" style="endArrow=none;dashed=1;html=1;dashPattern=1 3;strokeWidth=2;rounded=0;fontColor=#B85450;exitX=1;exitY=0.5;exitDx=0;exitDy=0;strokeColor=#666666;" parent="1" target="8QPobty-ga2-9RG2W2WC-55" edge="1">
          <mxGeometry width="50" height="50" relative="1" as="geometry">
            <mxPoint x="161.25" y="50" as="sourcePoint" />
            <mxPoint x="348.25" y="50" as="targetPoint" />
          </mxGeometry>
        </mxCell>
        <mxCell id="8QPobty-ga2-9RG2W2WC-57" value="" style="edgeStyle=orthogonalEdgeStyle;curved=1;rounded=0;orthogonalLoop=1;jettySize=auto;html=1;entryX=0.5;entryY=0;entryDx=0;entryDy=0;entryPerimeter=0;" parent="1" target="8QPobty-ga2-9RG2W2WC-53" edge="1">
          <mxGeometry relative="1" as="geometry">
            <mxPoint x="199.79999999999995" y="60" as="sourcePoint" />
            <mxPoint x="199.79999999999995" y="115" as="targetPoint" />
          </mxGeometry>
        </mxCell>
        <mxCell id="duTxGEH-BFEiXY6p15b0-1" value="" style="endArrow=none;dashed=1;html=1;dashPattern=1 3;strokeWidth=2;rounded=0;fontColor=#B85450;exitX=1;exitY=0.5;exitDx=0;exitDy=0;strokeColor=#666666;startArrow=none;" edge="1" parent="1">
          <mxGeometry width="50" height="50" relative="1" as="geometry">
            <mxPoint x="290" y="49.5" as="sourcePoint" />
            <mxPoint x="403.25" y="49.5" as="targetPoint" />
          </mxGeometry>
        </mxCell>
      </root>
    </mxGraphModel>
  </diagram>
  <diagram id="UkYAirAOWzL9FwlcASSq" name="Deux feature livrées simultanément">
    <mxGraphModel dx="1434" dy="746" grid="1" gridSize="10" guides="1" tooltips="1" connect="1" arrows="1" fold="1" page="1" pageScale="1" pageWidth="827" pageHeight="1169" math="0" shadow="0">
      <root>
        <mxCell id="0" />
        <mxCell id="1" parent="0" />
        <mxCell id="PGl6Srur5oN86UOaOJ-j-1" value="" style="endArrow=none;dashed=1;html=1;dashPattern=1 3;strokeWidth=2;rounded=0;fontColor=#E1D5E7;strokeColor=#9933FF;" parent="1" edge="1">
          <mxGeometry width="50" height="50" relative="1" as="geometry">
            <mxPoint x="769" y="515" as="sourcePoint" />
            <mxPoint x="910" y="515" as="targetPoint" />
            <Array as="points">
              <mxPoint x="789" y="515" />
            </Array>
          </mxGeometry>
        </mxCell>
        <mxCell id="PGl6Srur5oN86UOaOJ-j-2" value="" style="endArrow=none;dashed=1;html=1;dashPattern=1 3;strokeWidth=2;rounded=0;fontColor=#E1D5E7;strokeColor=#9933FF;" parent="1" source="PGl6Srur5oN86UOaOJ-j-21" edge="1">
          <mxGeometry width="50" height="50" relative="1" as="geometry">
            <mxPoint x="450" y="438.5" as="sourcePoint" />
            <mxPoint x="910" y="439" as="targetPoint" />
          </mxGeometry>
        </mxCell>
        <mxCell id="PGl6Srur5oN86UOaOJ-j-3" value="" style="edgeStyle=orthogonalEdgeStyle;rounded=0;html=1;jettySize=auto;orthogonalLoop=1;plain-blue;endArrow=none;endFill=0;strokeWidth=4;strokeColor=#000000;" parent="1" source="PGl6Srur5oN86UOaOJ-j-47" target="PGl6Srur5oN86UOaOJ-j-6" edge="1">
          <mxGeometry x="504.5" y="320" as="geometry" />
        </mxCell>
        <mxCell id="PGl6Srur5oN86UOaOJ-j-4" style="edgeStyle=orthogonalEdgeStyle;curved=1;rounded=0;html=1;entryX=0;entryY=0.5;entryPerimeter=0;endArrow=none;endFill=0;jettySize=auto;orthogonalLoop=1;strokeWidth=4;fontSize=15;" parent="1" target="PGl6Srur5oN86UOaOJ-j-40" edge="1">
          <mxGeometry relative="1" as="geometry">
            <mxPoint x="610" y="360" as="sourcePoint" />
            <Array as="points">
              <mxPoint x="620" y="360" />
              <mxPoint x="620" y="515" />
            </Array>
          </mxGeometry>
        </mxCell>
        <mxCell id="PGl6Srur5oN86UOaOJ-j-5" value="" style="verticalLabelPosition=bottom;verticalAlign=top;html=1;strokeWidth=4;shape=mxgraph.flowchart.on-page_reference;plain-blue;gradientColor=none;fillColor=#B5E3Fe;strokeColor=#000000;" parent="1" vertex="1">
          <mxGeometry x="430" y="345" width="30" height="30" as="geometry" />
        </mxCell>
        <mxCell id="PGl6Srur5oN86UOaOJ-j-6" value="" style="verticalLabelPosition=bottom;verticalAlign=top;html=1;strokeWidth=4;shape=mxgraph.flowchart.on-page_reference;plain-blue;gradientColor=none;strokeColor=#000000;" parent="1" vertex="1">
          <mxGeometry x="804.5" y="345" width="30" height="30" as="geometry" />
        </mxCell>
        <mxCell id="PGl6Srur5oN86UOaOJ-j-7" value="" style="edgeStyle=orthogonalEdgeStyle;rounded=0;html=1;jettySize=auto;orthogonalLoop=1;strokeWidth=4;endArrow=none;endFill=0;exitX=1;exitY=0.5;exitDx=0;exitDy=0;startArrow=none;" parent="1" source="PGl6Srur5oN86UOaOJ-j-15" target="PGl6Srur5oN86UOaOJ-j-5" edge="1">
          <mxGeometry x="404.5" y="320" as="geometry">
            <mxPoint x="400" y="360" as="sourcePoint" />
          </mxGeometry>
        </mxCell>
        <mxCell id="PGl6Srur5oN86UOaOJ-j-8" value="develop" style="text;html=1;strokeColor=#10739e;fillColor=#b1ddf0;align=center;verticalAlign=middle;whiteSpace=wrap;overflow=hidden;fontSize=14;fontStyle=1;fontFamily=Courier New;fontColor=#000000;" parent="1" vertex="1">
          <mxGeometry x="80" y="350" width="120" height="20" as="geometry" />
        </mxCell>
        <mxCell id="PGl6Srur5oN86UOaOJ-j-9" style="edgeStyle=orthogonalEdgeStyle;curved=1;rounded=0;html=1;exitX=1;exitY=0.5;exitPerimeter=0;entryX=0;entryY=0.5;entryPerimeter=0;endArrow=none;endFill=0;jettySize=auto;orthogonalLoop=1;strokeWidth=4;fontSize=15;" parent="1" source="PGl6Srur5oN86UOaOJ-j-40" target="PGl6Srur5oN86UOaOJ-j-42" edge="1">
          <mxGeometry relative="1" as="geometry" />
        </mxCell>
        <mxCell id="PGl6Srur5oN86UOaOJ-j-10" style="edgeStyle=orthogonalEdgeStyle;curved=1;rounded=0;html=1;exitX=1;exitY=0.5;exitPerimeter=0;entryX=0;entryY=0.5;entryPerimeter=0;endArrow=none;endFill=0;jettySize=auto;orthogonalLoop=1;strokeWidth=4;fontSize=15;" parent="1" source="PGl6Srur5oN86UOaOJ-j-42" target="PGl6Srur5oN86UOaOJ-j-12" edge="1">
          <mxGeometry relative="1" as="geometry" />
        </mxCell>
        <mxCell id="PGl6Srur5oN86UOaOJ-j-11" style="edgeStyle=orthogonalEdgeStyle;curved=1;rounded=0;html=1;exitX=1;exitY=0.5;exitPerimeter=0;entryX=0;entryY=0.5;entryPerimeter=0;endArrow=none;endFill=0;jettySize=auto;orthogonalLoop=1;strokeWidth=4;fontSize=15;" parent="1" source="PGl6Srur5oN86UOaOJ-j-12" target="PGl6Srur5oN86UOaOJ-j-6" edge="1">
          <mxGeometry relative="1" as="geometry">
            <Array as="points">
              <mxPoint x="760" y="515" />
              <mxPoint x="760" y="520" />
              <mxPoint x="784" y="520" />
              <mxPoint x="784" y="360" />
            </Array>
          </mxGeometry>
        </mxCell>
        <mxCell id="PGl6Srur5oN86UOaOJ-j-12" value="" style="verticalLabelPosition=bottom;verticalAlign=top;html=1;strokeWidth=4;shape=mxgraph.flowchart.on-page_reference;plain-purple;gradientColor=none;strokeColor=#000000;fillColor=#9933FF;" parent="1" vertex="1">
          <mxGeometry x="733.75" y="500" width="30" height="30" as="geometry" />
        </mxCell>
        <mxCell id="PGl6Srur5oN86UOaOJ-j-13" value="release/2.0.0" style="text;html=1;strokeColor=#3700CC;fillColor=#6a00ff;align=left;verticalAlign=middle;whiteSpace=wrap;overflow=hidden;fontSize=14;fontStyle=1;fontFamily=Courier New;fontColor=#ffffff;" parent="1" vertex="1">
          <mxGeometry x="81.25" y="505" width="120" height="20" as="geometry" />
        </mxCell>
        <mxCell id="PGl6Srur5oN86UOaOJ-j-14" value="" style="edgeStyle=orthogonalEdgeStyle;shape=connector;curved=1;rounded=0;orthogonalLoop=1;jettySize=auto;html=1;labelBackgroundColor=default;fontFamily=Helvetica;fontSize=15;fontColor=default;endArrow=none;endFill=0;strokeColor=default;strokeWidth=4;entryX=0;entryY=0.5;entryDx=0;entryDy=0;entryPerimeter=0;exitX=1.033;exitY=0.6;exitDx=0;exitDy=0;exitPerimeter=0;" parent="1" source="PGl6Srur5oN86UOaOJ-j-15" target="PGl6Srur5oN86UOaOJ-j-18" edge="1">
          <mxGeometry relative="1" as="geometry">
            <mxPoint x="245" y="455" as="targetPoint" />
            <Array as="points">
              <mxPoint x="310" y="363" />
              <mxPoint x="310" y="439" />
            </Array>
          </mxGeometry>
        </mxCell>
        <mxCell id="PGl6Srur5oN86UOaOJ-j-15" value="" style="verticalLabelPosition=bottom;verticalAlign=top;html=1;strokeWidth=4;shape=mxgraph.flowchart.on-page_reference;plain-blue;gradientColor=none;fillColor=#B5E3Fe;strokeColor=#000000;" parent="1" vertex="1">
          <mxGeometry x="270" y="345" width="30" height="30" as="geometry" />
        </mxCell>
        <mxCell id="PGl6Srur5oN86UOaOJ-j-16" value="" style="edgeStyle=orthogonalEdgeStyle;rounded=0;html=1;jettySize=auto;orthogonalLoop=1;strokeWidth=4;endArrow=none;endFill=0;exitX=1;exitY=0.5;exitDx=0;exitDy=0;" parent="1" source="PGl6Srur5oN86UOaOJ-j-8" target="PGl6Srur5oN86UOaOJ-j-15" edge="1">
          <mxGeometry x="404.5" y="320" as="geometry">
            <mxPoint x="200" y="360" as="sourcePoint" />
            <mxPoint x="514.5" y="360" as="targetPoint" />
          </mxGeometry>
        </mxCell>
        <mxCell id="PGl6Srur5oN86UOaOJ-j-17" style="edgeStyle=orthogonalEdgeStyle;curved=1;rounded=0;html=1;exitX=1;exitY=0.5;exitPerimeter=0;entryX=0;entryY=0.5;entryPerimeter=0;endArrow=none;endFill=0;jettySize=auto;orthogonalLoop=1;strokeWidth=4;fontSize=15;" parent="1" source="PGl6Srur5oN86UOaOJ-j-18" target="PGl6Srur5oN86UOaOJ-j-20" edge="1">
          <mxGeometry relative="1" as="geometry" />
        </mxCell>
        <mxCell id="PGl6Srur5oN86UOaOJ-j-18" value="" style="verticalLabelPosition=bottom;verticalAlign=top;html=1;strokeWidth=4;shape=mxgraph.flowchart.on-page_reference;strokeColor=#2D7600;fillColor=#60a917;fontColor=#ffffff;" parent="1" vertex="1">
          <mxGeometry x="335" y="424" width="30" height="30" as="geometry" />
        </mxCell>
        <mxCell id="PGl6Srur5oN86UOaOJ-j-19" value="" style="edgeStyle=orthogonalEdgeStyle;shape=connector;curved=1;rounded=0;orthogonalLoop=1;jettySize=auto;html=1;labelBackgroundColor=default;fontFamily=Helvetica;fontSize=15;fontColor=default;endArrow=none;endFill=0;strokeColor=default;strokeWidth=4;entryX=0;entryY=0.5;entryDx=0;entryDy=0;entryPerimeter=0;" parent="1" source="PGl6Srur5oN86UOaOJ-j-20" target="PGl6Srur5oN86UOaOJ-j-5" edge="1">
          <mxGeometry relative="1" as="geometry">
            <mxPoint x="471.75" y="439" as="targetPoint" />
            <Array as="points">
              <mxPoint x="430" y="439" />
            </Array>
          </mxGeometry>
        </mxCell>
        <mxCell id="PGl6Srur5oN86UOaOJ-j-20" value="" style="verticalLabelPosition=bottom;verticalAlign=top;html=1;strokeWidth=4;shape=mxgraph.flowchart.on-page_reference;strokeColor=#2D7600;fillColor=#60a917;fontColor=#ffffff;" parent="1" vertex="1">
          <mxGeometry x="385" y="424" width="30" height="30" as="geometry" />
        </mxCell>
        <mxCell id="PGl6Srur5oN86UOaOJ-j-21" value="feature/ajouter_fonction_a" style="text;html=1;strokeColor=#2D7600;fillColor=#60a917;align=left;verticalAlign=middle;whiteSpace=wrap;overflow=hidden;fontSize=14;fontStyle=1;fontFamily=Courier New;fontColor=#ffffff;" parent="1" vertex="1">
          <mxGeometry x="80" y="429" width="230" height="20" as="geometry" />
        </mxCell>
        <mxCell id="PGl6Srur5oN86UOaOJ-j-22" value="" style="endArrow=none;dashed=1;html=1;dashPattern=1 3;strokeWidth=2;rounded=0;fontColor=#B85450;exitX=1;exitY=0.5;exitDx=0;exitDy=0;strokeColor=#666666;startArrow=none;" parent="1" source="PGl6Srur5oN86UOaOJ-j-33" edge="1">
          <mxGeometry width="50" height="50" relative="1" as="geometry">
            <mxPoint x="201.25" y="90" as="sourcePoint" />
            <mxPoint x="470" y="90" as="targetPoint" />
          </mxGeometry>
        </mxCell>
        <mxCell id="PGl6Srur5oN86UOaOJ-j-23" value="" style="edgeStyle=orthogonalEdgeStyle;curved=1;rounded=0;orthogonalLoop=1;jettySize=auto;html=1;" parent="1" source="PGl6Srur5oN86UOaOJ-j-24" target="PGl6Srur5oN86UOaOJ-j-27" edge="1">
          <mxGeometry relative="1" as="geometry">
            <Array as="points">
              <mxPoint x="749" y="140" />
              <mxPoint x="749" y="140" />
            </Array>
          </mxGeometry>
        </mxCell>
        <mxCell id="PGl6Srur5oN86UOaOJ-j-24" value="Tag: 2.0.0" style="text;html=1;strokeColor=#666666;fillColor=#f5f5f5;align=center;verticalAlign=middle;whiteSpace=wrap;overflow=hidden;fontSize=14;fontColor=#333333;" parent="1" vertex="1">
          <mxGeometry x="715" y="80" width="70" height="20" as="geometry" />
        </mxCell>
        <mxCell id="PGl6Srur5oN86UOaOJ-j-25" value="" style="endArrow=none;dashed=1;html=1;dashPattern=1 3;strokeWidth=2;rounded=0;fontColor=#B85450;exitX=1;exitY=0.5;exitDx=0;exitDy=0;strokeColor=#666666;startArrow=none;" parent="1" target="PGl6Srur5oN86UOaOJ-j-24" edge="1">
          <mxGeometry width="50" height="50" relative="1" as="geometry">
            <mxPoint x="458.25" y="90" as="sourcePoint" />
            <mxPoint x="971.25" y="90" as="targetPoint" />
          </mxGeometry>
        </mxCell>
        <mxCell id="PGl6Srur5oN86UOaOJ-j-26" value="" style="endArrow=none;dashed=1;html=1;dashPattern=1 3;strokeWidth=2;rounded=0;fontColor=#B85450;exitX=1;exitY=0.5;exitDx=0;exitDy=0;strokeColor=#808080;startArrow=none;" parent="1" source="PGl6Srur5oN86UOaOJ-j-24" edge="1">
          <mxGeometry width="50" height="50" relative="1" as="geometry">
            <mxPoint x="785" y="90" as="sourcePoint" />
            <mxPoint x="920" y="90" as="targetPoint" />
          </mxGeometry>
        </mxCell>
        <mxCell id="PGl6Srur5oN86UOaOJ-j-27" value="" style="shape=waypoint;sketch=0;size=6;pointerEvents=1;points=[];fillColor=none;resizable=0;rotatable=0;perimeter=centerPerimeter;snapToPoint=1;" parent="1" vertex="1">
          <mxGeometry x="728.75" y="480" width="40" height="40" as="geometry" />
        </mxCell>
        <mxCell id="PGl6Srur5oN86UOaOJ-j-28" value="refs/tags" style="text;html=1;strokeColor=#666666;fillColor=#f5f5f5;align=left;verticalAlign=middle;whiteSpace=wrap;overflow=hidden;fontSize=14;fontStyle=1;fontFamily=Courier New;fontColor=#333333;" parent="1" vertex="1">
          <mxGeometry x="81.25" y="80" width="120" height="20" as="geometry" />
        </mxCell>
        <mxCell id="PGl6Srur5oN86UOaOJ-j-29" value="master" style="text;html=1;strokeColor=#314354;fillColor=#647687;align=center;verticalAlign=middle;whiteSpace=wrap;overflow=hidden;fontSize=14;fontStyle=1;fontFamily=Courier New;fontColor=#ffffff;" parent="1" vertex="1">
          <mxGeometry x="80" y="260" width="120" height="20" as="geometry" />
        </mxCell>
        <mxCell id="PGl6Srur5oN86UOaOJ-j-30" value="" style="endArrow=none;dashed=1;html=1;dashPattern=1 3;strokeWidth=2;rounded=0;fontColor=#B85450;exitX=1;exitY=0.5;exitDx=0;exitDy=0;strokeColor=#314354;fillColor=#647687;startArrow=none;" parent="1" edge="1">
          <mxGeometry width="50" height="50" relative="1" as="geometry">
            <mxPoint x="225" y="260" as="sourcePoint" />
            <mxPoint x="920" y="260" as="targetPoint" />
          </mxGeometry>
        </mxCell>
        <mxCell id="PGl6Srur5oN86UOaOJ-j-31" value="" style="verticalLabelPosition=bottom;verticalAlign=top;html=1;strokeWidth=4;shape=mxgraph.flowchart.on-page_reference;fillColor=#647687;strokeColor=#314354;fontColor=#ffffff;" parent="1" vertex="1">
          <mxGeometry x="225" y="255" width="30" height="30" as="geometry" />
        </mxCell>
        <mxCell id="PGl6Srur5oN86UOaOJ-j-32" value="" style="edgeStyle=orthogonalEdgeStyle;shape=connector;curved=1;rounded=0;orthogonalLoop=1;jettySize=auto;html=1;labelBackgroundColor=default;fontFamily=Helvetica;fontSize=15;fontColor=default;endArrow=none;endFill=0;strokeColor=default;strokeWidth=4;entryX=0;entryY=0.5;entryDx=0;entryDy=0;entryPerimeter=0;exitX=0.5;exitY=1;exitDx=0;exitDy=0;exitPerimeter=0;" parent="1" source="PGl6Srur5oN86UOaOJ-j-31" edge="1">
          <mxGeometry relative="1" as="geometry">
            <mxPoint x="270" y="356" as="targetPoint" />
            <Array as="points">
              <mxPoint x="240" y="356" />
            </Array>
            <mxPoint x="236" y="290" as="sourcePoint" />
          </mxGeometry>
        </mxCell>
        <mxCell id="PGl6Srur5oN86UOaOJ-j-33" value="Tag: 1.0.0" style="text;html=1;strokeColor=#666666;fillColor=#f5f5f5;align=center;verticalAlign=middle;whiteSpace=wrap;overflow=hidden;fontSize=14;fontColor=#333333;" parent="1" vertex="1">
          <mxGeometry x="205" y="80" width="70" height="20" as="geometry" />
        </mxCell>
        <mxCell id="PGl6Srur5oN86UOaOJ-j-34" value="" style="endArrow=none;dashed=1;html=1;dashPattern=1 3;strokeWidth=2;rounded=0;fontColor=#B85450;exitX=1;exitY=0.5;exitDx=0;exitDy=0;strokeColor=#666666;" parent="1" target="PGl6Srur5oN86UOaOJ-j-33" edge="1">
          <mxGeometry width="50" height="50" relative="1" as="geometry">
            <mxPoint x="201.25" y="90" as="sourcePoint" />
            <mxPoint x="388.25" y="90" as="targetPoint" />
          </mxGeometry>
        </mxCell>
        <mxCell id="PGl6Srur5oN86UOaOJ-j-35" value="" style="edgeStyle=orthogonalEdgeStyle;curved=1;rounded=0;orthogonalLoop=1;jettySize=auto;html=1;entryX=0.5;entryY=0;entryDx=0;entryDy=0;entryPerimeter=0;" parent="1" target="PGl6Srur5oN86UOaOJ-j-31" edge="1">
          <mxGeometry relative="1" as="geometry">
            <mxPoint x="239.79999999999995" y="100" as="sourcePoint" />
            <mxPoint x="239.79999999999995" y="155" as="targetPoint" />
          </mxGeometry>
        </mxCell>
        <mxCell id="PGl6Srur5oN86UOaOJ-j-36" value="" style="verticalLabelPosition=bottom;verticalAlign=top;html=1;strokeWidth=4;shape=mxgraph.flowchart.on-page_reference;strokeColor=#2D7600;fillColor=#c4ac36;fontColor=#ffffff;" parent="1" vertex="1">
          <mxGeometry x="355" y="225" width="30" height="30" as="geometry" />
        </mxCell>
        <mxCell id="PGl6Srur5oN86UOaOJ-j-37" value="" style="verticalLabelPosition=bottom;verticalAlign=top;html=1;strokeWidth=4;shape=mxgraph.flowchart.on-page_reference;strokeColor=#2D7600;fillColor=#c4ac36;fontColor=#ffffff;" parent="1" vertex="1">
          <mxGeometry x="470" y="230" width="30" height="30" as="geometry" />
        </mxCell>
        <mxCell id="PGl6Srur5oN86UOaOJ-j-38" value="" style="edgeStyle=orthogonalEdgeStyle;rounded=0;html=1;jettySize=auto;orthogonalLoop=1;strokeWidth=4;endArrow=none;endFill=0;exitX=1;exitY=0.5;exitDx=0;exitDy=0;entryX=0;entryY=0.5;entryDx=0;entryDy=0;entryPerimeter=0;exitPerimeter=0;" parent="1" source="PGl6Srur5oN86UOaOJ-j-36" target="PGl6Srur5oN86UOaOJ-j-37" edge="1">
          <mxGeometry x="404.5" y="320" as="geometry">
            <mxPoint x="210" y="370" as="sourcePoint" />
            <mxPoint x="280" y="370" as="targetPoint" />
            <Array as="points">
              <mxPoint x="470" y="240" />
            </Array>
          </mxGeometry>
        </mxCell>
        <mxCell id="PGl6Srur5oN86UOaOJ-j-39" value="" style="endArrow=none;dashed=1;html=1;dashPattern=1 3;strokeWidth=2;rounded=0;fontColor=#E1D5E7;strokeColor=#9933FF;" parent="1" source="PGl6Srur5oN86UOaOJ-j-13" target="PGl6Srur5oN86UOaOJ-j-40" edge="1">
          <mxGeometry width="50" height="50" relative="1" as="geometry">
            <mxPoint x="201" y="514" as="sourcePoint" />
            <mxPoint x="1141.25" y="515.0000000000001" as="targetPoint" />
            <Array as="points" />
          </mxGeometry>
        </mxCell>
        <mxCell id="PGl6Srur5oN86UOaOJ-j-40" value="" style="verticalLabelPosition=bottom;verticalAlign=top;html=1;strokeWidth=4;shape=mxgraph.flowchart.on-page_reference;plain-purple;gradientColor=none;strokeColor=#000000;fillColor=#9933FF;" parent="1" vertex="1">
          <mxGeometry x="630" y="500" width="30" height="30" as="geometry" />
        </mxCell>
        <mxCell id="PGl6Srur5oN86UOaOJ-j-41" value="" style="endArrow=none;dashed=1;html=1;dashPattern=1 3;strokeWidth=2;rounded=0;fontColor=#E1D5E7;strokeColor=#9933FF;" parent="1" source="PGl6Srur5oN86UOaOJ-j-40" target="PGl6Srur5oN86UOaOJ-j-42" edge="1">
          <mxGeometry width="50" height="50" relative="1" as="geometry">
            <mxPoint x="640" y="514" as="sourcePoint" />
            <mxPoint x="1141.25" y="515.0000000000001" as="targetPoint" />
            <Array as="points" />
          </mxGeometry>
        </mxCell>
        <mxCell id="PGl6Srur5oN86UOaOJ-j-42" value="" style="verticalLabelPosition=bottom;verticalAlign=top;html=1;strokeWidth=4;shape=mxgraph.flowchart.on-page_reference;plain-purple;gradientColor=none;strokeColor=#000000;fillColor=#9933FF;" parent="1" vertex="1">
          <mxGeometry x="680" y="500" width="30" height="30" as="geometry" />
        </mxCell>
        <mxCell id="PGl6Srur5oN86UOaOJ-j-43" style="edgeStyle=orthogonalEdgeStyle;curved=1;rounded=0;html=1;endArrow=none;endFill=0;jettySize=auto;orthogonalLoop=1;strokeWidth=4;fontSize=15;exitX=0.855;exitY=0.855;exitDx=0;exitDy=0;exitPerimeter=0;" parent="1" source="PGl6Srur5oN86UOaOJ-j-47" edge="1">
          <mxGeometry relative="1" as="geometry">
            <mxPoint x="620" y="370" as="sourcePoint" />
            <mxPoint x="600" y="360" as="targetPoint" />
            <Array as="points">
              <mxPoint x="596" y="360" />
            </Array>
          </mxGeometry>
        </mxCell>
        <mxCell id="PGl6Srur5oN86UOaOJ-j-44" value="feature/ajouter_fonction_b" style="text;html=1;strokeColor=#2D7600;fillColor=#C4AC36;align=left;verticalAlign=middle;whiteSpace=wrap;overflow=hidden;fontSize=14;fontStyle=1;fontFamily=Courier New;fontColor=#ffffff;" parent="1" vertex="1">
          <mxGeometry x="340" y="200" width="230" height="20" as="geometry" />
        </mxCell>
        <mxCell id="PGl6Srur5oN86UOaOJ-j-45" value="" style="edgeStyle=orthogonalEdgeStyle;rounded=0;html=1;jettySize=auto;orthogonalLoop=1;plain-blue;endArrow=none;endFill=0;strokeWidth=4;strokeColor=#000000;" parent="1" source="PGl6Srur5oN86UOaOJ-j-5" target="PGl6Srur5oN86UOaOJ-j-47" edge="1">
          <mxGeometry x="504.5" y="320" as="geometry">
            <mxPoint x="460" y="360" as="sourcePoint" />
            <mxPoint x="805" y="360" as="targetPoint" />
          </mxGeometry>
        </mxCell>
        <mxCell id="PGl6Srur5oN86UOaOJ-j-46" value="" style="edgeStyle=orthogonalEdgeStyle;curved=1;rounded=0;html=1;endArrow=none;endFill=0;jettySize=auto;orthogonalLoop=1;strokeWidth=4;fontSize=15;exitX=0.855;exitY=0.855;exitDx=0;exitDy=0;exitPerimeter=0;entryX=0;entryY=0.5;entryDx=0;entryDy=0;entryPerimeter=0;" parent="1" source="PGl6Srur5oN86UOaOJ-j-37" target="PGl6Srur5oN86UOaOJ-j-47" edge="1">
          <mxGeometry relative="1" as="geometry">
            <mxPoint x="596" y="266" as="sourcePoint" />
            <mxPoint x="600" y="360" as="targetPoint" />
            <Array as="points">
              <mxPoint x="496" y="266" />
              <mxPoint x="590" y="266" />
            </Array>
          </mxGeometry>
        </mxCell>
        <mxCell id="PGl6Srur5oN86UOaOJ-j-47" value="" style="verticalLabelPosition=bottom;verticalAlign=top;html=1;strokeWidth=4;shape=mxgraph.flowchart.on-page_reference;plain-blue;gradientColor=none;fillColor=#B5E3Fe;strokeColor=#000000;" parent="1" vertex="1">
          <mxGeometry x="590" y="345" width="30" height="30" as="geometry" />
        </mxCell>
        <mxCell id="PGl6Srur5oN86UOaOJ-j-48" value="" style="edgeStyle=orthogonalEdgeStyle;curved=1;rounded=0;orthogonalLoop=1;jettySize=auto;html=1;endArrow=none;endFill=0;strokeWidth=4;fontFamily=Courier New;fontSize=16;entryX=0.145;entryY=0.855;entryDx=0;entryDy=0;entryPerimeter=0;" parent="1" source="PGl6Srur5oN86UOaOJ-j-15" target="PGl6Srur5oN86UOaOJ-j-36" edge="1">
          <mxGeometry relative="1" as="geometry">
            <mxPoint x="363" y="270" as="targetPoint" />
            <Array as="points">
              <mxPoint x="280" y="290" />
              <mxPoint x="310" y="290" />
              <mxPoint x="310" y="251" />
            </Array>
            <mxPoint x="280" y="340" as="sourcePoint" />
          </mxGeometry>
        </mxCell>
      </root>
    </mxGraphModel>
  </diagram>
  <diagram id="-jhmIT1bcEpUeQeLKluy" name="Deux feature qui ne doivent pas être livrées simultanément">
    <mxGraphModel dx="1434" dy="746" grid="1" gridSize="10" guides="1" tooltips="1" connect="1" arrows="1" fold="1" page="1" pageScale="1" pageWidth="827" pageHeight="1169" math="0" shadow="0">
      <root>
        <mxCell id="0" />
        <mxCell id="1" parent="0" />
        <mxCell id="2Su23uGdI_CXdrzCFfWL-1" value="" style="endArrow=none;dashed=1;html=1;dashPattern=1 3;strokeWidth=2;rounded=0;fontColor=#E1D5E7;strokeColor=#9933FF;" parent="1" edge="1">
          <mxGeometry width="50" height="50" relative="1" as="geometry">
            <mxPoint x="769" y="515" as="sourcePoint" />
            <mxPoint x="910" y="515" as="targetPoint" />
            <Array as="points">
              <mxPoint x="789" y="515" />
            </Array>
          </mxGeometry>
        </mxCell>
        <mxCell id="2Su23uGdI_CXdrzCFfWL-2" value="" style="endArrow=none;dashed=1;html=1;dashPattern=1 3;strokeWidth=2;rounded=0;fontColor=#E1D5E7;strokeColor=#9933FF;" parent="1" source="2Su23uGdI_CXdrzCFfWL-21" edge="1">
          <mxGeometry width="50" height="50" relative="1" as="geometry">
            <mxPoint x="450" y="438.5" as="sourcePoint" />
            <mxPoint x="910" y="439" as="targetPoint" />
          </mxGeometry>
        </mxCell>
        <mxCell id="2Su23uGdI_CXdrzCFfWL-3" value="" style="edgeStyle=orthogonalEdgeStyle;rounded=0;html=1;jettySize=auto;orthogonalLoop=1;plain-blue;endArrow=none;endFill=0;strokeWidth=4;strokeColor=#000000;" parent="1" source="2Su23uGdI_CXdrzCFfWL-47" target="2Su23uGdI_CXdrzCFfWL-6" edge="1">
          <mxGeometry x="504.5" y="320" as="geometry" />
        </mxCell>
        <mxCell id="2Su23uGdI_CXdrzCFfWL-4" style="edgeStyle=orthogonalEdgeStyle;curved=1;rounded=0;html=1;entryX=0;entryY=0.5;entryPerimeter=0;endArrow=none;endFill=0;jettySize=auto;orthogonalLoop=1;strokeWidth=4;fontSize=15;" parent="1" target="2Su23uGdI_CXdrzCFfWL-40" edge="1">
          <mxGeometry relative="1" as="geometry">
            <mxPoint x="610" y="360" as="sourcePoint" />
            <Array as="points">
              <mxPoint x="620" y="360" />
              <mxPoint x="620" y="515" />
            </Array>
          </mxGeometry>
        </mxCell>
        <mxCell id="2Su23uGdI_CXdrzCFfWL-5" value="" style="verticalLabelPosition=bottom;verticalAlign=top;html=1;strokeWidth=4;shape=mxgraph.flowchart.on-page_reference;plain-blue;gradientColor=none;fillColor=#B5E3Fe;strokeColor=#000000;" parent="1" vertex="1">
          <mxGeometry x="430" y="345" width="30" height="30" as="geometry" />
        </mxCell>
        <mxCell id="2Su23uGdI_CXdrzCFfWL-6" value="" style="verticalLabelPosition=bottom;verticalAlign=top;html=1;strokeWidth=4;shape=mxgraph.flowchart.on-page_reference;plain-blue;gradientColor=none;strokeColor=#000000;" parent="1" vertex="1">
          <mxGeometry x="804.5" y="345" width="30" height="30" as="geometry" />
        </mxCell>
        <mxCell id="2Su23uGdI_CXdrzCFfWL-7" value="" style="edgeStyle=orthogonalEdgeStyle;rounded=0;html=1;jettySize=auto;orthogonalLoop=1;strokeWidth=4;endArrow=none;endFill=0;exitX=1;exitY=0.5;exitDx=0;exitDy=0;startArrow=none;" parent="1" source="2Su23uGdI_CXdrzCFfWL-15" target="2Su23uGdI_CXdrzCFfWL-5" edge="1">
          <mxGeometry x="404.5" y="320" as="geometry">
            <mxPoint x="400" y="360" as="sourcePoint" />
          </mxGeometry>
        </mxCell>
        <mxCell id="2Su23uGdI_CXdrzCFfWL-8" value="develop" style="text;html=1;strokeColor=#10739e;fillColor=#b1ddf0;align=center;verticalAlign=middle;whiteSpace=wrap;overflow=hidden;fontSize=14;fontStyle=1;fontFamily=Courier New;fontColor=#000000;" parent="1" vertex="1">
          <mxGeometry x="80" y="350" width="120" height="20" as="geometry" />
        </mxCell>
        <mxCell id="2Su23uGdI_CXdrzCFfWL-9" style="edgeStyle=orthogonalEdgeStyle;curved=1;rounded=0;html=1;exitX=1;exitY=0.5;exitPerimeter=0;entryX=0;entryY=0.5;entryPerimeter=0;endArrow=none;endFill=0;jettySize=auto;orthogonalLoop=1;strokeWidth=4;fontSize=15;" parent="1" source="2Su23uGdI_CXdrzCFfWL-40" target="2Su23uGdI_CXdrzCFfWL-42" edge="1">
          <mxGeometry relative="1" as="geometry" />
        </mxCell>
        <mxCell id="2Su23uGdI_CXdrzCFfWL-10" style="edgeStyle=orthogonalEdgeStyle;curved=1;rounded=0;html=1;exitX=1;exitY=0.5;exitPerimeter=0;entryX=0;entryY=0.5;entryPerimeter=0;endArrow=none;endFill=0;jettySize=auto;orthogonalLoop=1;strokeWidth=4;fontSize=15;" parent="1" source="2Su23uGdI_CXdrzCFfWL-42" target="2Su23uGdI_CXdrzCFfWL-12" edge="1">
          <mxGeometry relative="1" as="geometry" />
        </mxCell>
        <mxCell id="2Su23uGdI_CXdrzCFfWL-11" style="edgeStyle=orthogonalEdgeStyle;curved=1;rounded=0;html=1;exitX=1;exitY=0.5;exitPerimeter=0;entryX=0;entryY=0.5;entryPerimeter=0;endArrow=none;endFill=0;jettySize=auto;orthogonalLoop=1;strokeWidth=4;fontSize=15;" parent="1" source="2Su23uGdI_CXdrzCFfWL-12" target="2Su23uGdI_CXdrzCFfWL-6" edge="1">
          <mxGeometry relative="1" as="geometry">
            <Array as="points">
              <mxPoint x="760" y="515" />
              <mxPoint x="760" y="520" />
              <mxPoint x="784" y="520" />
              <mxPoint x="784" y="360" />
            </Array>
          </mxGeometry>
        </mxCell>
        <mxCell id="2Su23uGdI_CXdrzCFfWL-12" value="" style="verticalLabelPosition=bottom;verticalAlign=top;html=1;strokeWidth=4;shape=mxgraph.flowchart.on-page_reference;plain-purple;gradientColor=none;strokeColor=#000000;fillColor=#9933FF;" parent="1" vertex="1">
          <mxGeometry x="733.75" y="500" width="30" height="30" as="geometry" />
        </mxCell>
        <mxCell id="2Su23uGdI_CXdrzCFfWL-13" value="release/2.0.0" style="text;html=1;strokeColor=#3700CC;fillColor=#6a00ff;align=left;verticalAlign=middle;whiteSpace=wrap;overflow=hidden;fontSize=14;fontStyle=1;fontFamily=Courier New;fontColor=#ffffff;" parent="1" vertex="1">
          <mxGeometry x="81.25" y="505" width="120" height="20" as="geometry" />
        </mxCell>
        <mxCell id="2Su23uGdI_CXdrzCFfWL-14" value="" style="edgeStyle=orthogonalEdgeStyle;shape=connector;curved=1;rounded=0;orthogonalLoop=1;jettySize=auto;html=1;labelBackgroundColor=default;fontFamily=Helvetica;fontSize=15;fontColor=default;endArrow=none;endFill=0;strokeColor=default;strokeWidth=4;entryX=0;entryY=0.5;entryDx=0;entryDy=0;entryPerimeter=0;exitX=1.033;exitY=0.6;exitDx=0;exitDy=0;exitPerimeter=0;" parent="1" source="2Su23uGdI_CXdrzCFfWL-15" target="2Su23uGdI_CXdrzCFfWL-18" edge="1">
          <mxGeometry relative="1" as="geometry">
            <mxPoint x="245" y="455" as="targetPoint" />
            <Array as="points">
              <mxPoint x="310" y="363" />
              <mxPoint x="310" y="439" />
            </Array>
          </mxGeometry>
        </mxCell>
        <mxCell id="2Su23uGdI_CXdrzCFfWL-15" value="" style="verticalLabelPosition=bottom;verticalAlign=top;html=1;strokeWidth=4;shape=mxgraph.flowchart.on-page_reference;plain-blue;gradientColor=none;fillColor=#B5E3Fe;strokeColor=#000000;" parent="1" vertex="1">
          <mxGeometry x="270" y="345" width="30" height="30" as="geometry" />
        </mxCell>
        <mxCell id="2Su23uGdI_CXdrzCFfWL-16" value="" style="edgeStyle=orthogonalEdgeStyle;rounded=0;html=1;jettySize=auto;orthogonalLoop=1;strokeWidth=4;endArrow=none;endFill=0;exitX=1;exitY=0.5;exitDx=0;exitDy=0;" parent="1" source="2Su23uGdI_CXdrzCFfWL-8" target="2Su23uGdI_CXdrzCFfWL-15" edge="1">
          <mxGeometry x="404.5" y="320" as="geometry">
            <mxPoint x="200" y="360" as="sourcePoint" />
            <mxPoint x="514.5" y="360" as="targetPoint" />
          </mxGeometry>
        </mxCell>
        <mxCell id="2Su23uGdI_CXdrzCFfWL-17" style="edgeStyle=orthogonalEdgeStyle;curved=1;rounded=0;html=1;exitX=1;exitY=0.5;exitPerimeter=0;entryX=0;entryY=0.5;entryPerimeter=0;endArrow=none;endFill=0;jettySize=auto;orthogonalLoop=1;strokeWidth=4;fontSize=15;" parent="1" source="2Su23uGdI_CXdrzCFfWL-18" target="2Su23uGdI_CXdrzCFfWL-20" edge="1">
          <mxGeometry relative="1" as="geometry" />
        </mxCell>
        <mxCell id="2Su23uGdI_CXdrzCFfWL-18" value="" style="verticalLabelPosition=bottom;verticalAlign=top;html=1;strokeWidth=4;shape=mxgraph.flowchart.on-page_reference;strokeColor=#2D7600;fillColor=#60a917;fontColor=#ffffff;" parent="1" vertex="1">
          <mxGeometry x="335" y="424" width="30" height="30" as="geometry" />
        </mxCell>
        <mxCell id="2Su23uGdI_CXdrzCFfWL-19" value="" style="edgeStyle=orthogonalEdgeStyle;shape=connector;curved=1;rounded=0;orthogonalLoop=1;jettySize=auto;html=1;labelBackgroundColor=default;fontFamily=Helvetica;fontSize=15;fontColor=default;endArrow=none;endFill=0;strokeColor=default;strokeWidth=4;entryX=0;entryY=0.5;entryDx=0;entryDy=0;entryPerimeter=0;" parent="1" source="2Su23uGdI_CXdrzCFfWL-20" target="2Su23uGdI_CXdrzCFfWL-5" edge="1">
          <mxGeometry relative="1" as="geometry">
            <mxPoint x="471.75" y="439" as="targetPoint" />
            <Array as="points">
              <mxPoint x="430" y="439" />
            </Array>
          </mxGeometry>
        </mxCell>
        <mxCell id="2Su23uGdI_CXdrzCFfWL-20" value="" style="verticalLabelPosition=bottom;verticalAlign=top;html=1;strokeWidth=4;shape=mxgraph.flowchart.on-page_reference;strokeColor=#2D7600;fillColor=#60a917;fontColor=#ffffff;" parent="1" vertex="1">
          <mxGeometry x="385" y="424" width="30" height="30" as="geometry" />
        </mxCell>
        <mxCell id="2Su23uGdI_CXdrzCFfWL-21" value="feature/ajouter_fonction_a" style="text;html=1;strokeColor=#2D7600;fillColor=#60a917;align=left;verticalAlign=middle;whiteSpace=wrap;overflow=hidden;fontSize=14;fontStyle=1;fontFamily=Courier New;fontColor=#ffffff;" parent="1" vertex="1">
          <mxGeometry x="80" y="429" width="230" height="20" as="geometry" />
        </mxCell>
        <mxCell id="2Su23uGdI_CXdrzCFfWL-22" value="" style="endArrow=none;dashed=1;html=1;dashPattern=1 3;strokeWidth=2;rounded=0;fontColor=#B85450;exitX=1;exitY=0.5;exitDx=0;exitDy=0;strokeColor=#666666;startArrow=none;" parent="1" source="2Su23uGdI_CXdrzCFfWL-33" edge="1">
          <mxGeometry width="50" height="50" relative="1" as="geometry">
            <mxPoint x="201.25" y="90" as="sourcePoint" />
            <mxPoint x="470" y="90" as="targetPoint" />
          </mxGeometry>
        </mxCell>
        <mxCell id="2Su23uGdI_CXdrzCFfWL-23" value="" style="edgeStyle=orthogonalEdgeStyle;curved=1;rounded=0;orthogonalLoop=1;jettySize=auto;html=1;" parent="1" source="2Su23uGdI_CXdrzCFfWL-24" target="2Su23uGdI_CXdrzCFfWL-27" edge="1">
          <mxGeometry relative="1" as="geometry">
            <Array as="points">
              <mxPoint x="749" y="140" />
              <mxPoint x="749" y="140" />
            </Array>
          </mxGeometry>
        </mxCell>
        <mxCell id="2Su23uGdI_CXdrzCFfWL-24" value="Tag: 2.0.0" style="text;html=1;strokeColor=#666666;fillColor=#f5f5f5;align=center;verticalAlign=middle;whiteSpace=wrap;overflow=hidden;fontSize=14;fontColor=#333333;" parent="1" vertex="1">
          <mxGeometry x="715" y="80" width="70" height="20" as="geometry" />
        </mxCell>
        <mxCell id="2Su23uGdI_CXdrzCFfWL-25" value="" style="endArrow=none;dashed=1;html=1;dashPattern=1 3;strokeWidth=2;rounded=0;fontColor=#B85450;exitX=1;exitY=0.5;exitDx=0;exitDy=0;strokeColor=#666666;startArrow=none;" parent="1" target="2Su23uGdI_CXdrzCFfWL-24" edge="1">
          <mxGeometry width="50" height="50" relative="1" as="geometry">
            <mxPoint x="458.25" y="90" as="sourcePoint" />
            <mxPoint x="971.25" y="90" as="targetPoint" />
          </mxGeometry>
        </mxCell>
        <mxCell id="2Su23uGdI_CXdrzCFfWL-26" value="" style="endArrow=none;dashed=1;html=1;dashPattern=1 3;strokeWidth=2;rounded=0;fontColor=#B85450;exitX=1;exitY=0.5;exitDx=0;exitDy=0;strokeColor=#808080;startArrow=none;" parent="1" source="2Su23uGdI_CXdrzCFfWL-24" edge="1">
          <mxGeometry width="50" height="50" relative="1" as="geometry">
            <mxPoint x="785" y="90" as="sourcePoint" />
            <mxPoint x="920" y="90" as="targetPoint" />
          </mxGeometry>
        </mxCell>
        <mxCell id="2Su23uGdI_CXdrzCFfWL-27" value="" style="shape=waypoint;sketch=0;size=6;pointerEvents=1;points=[];fillColor=none;resizable=0;rotatable=0;perimeter=centerPerimeter;snapToPoint=1;" parent="1" vertex="1">
          <mxGeometry x="728.75" y="480" width="40" height="40" as="geometry" />
        </mxCell>
        <mxCell id="2Su23uGdI_CXdrzCFfWL-28" value="refs/tags" style="text;html=1;strokeColor=#666666;fillColor=#f5f5f5;align=left;verticalAlign=middle;whiteSpace=wrap;overflow=hidden;fontSize=14;fontStyle=1;fontFamily=Courier New;fontColor=#333333;" parent="1" vertex="1">
          <mxGeometry x="81.25" y="80" width="120" height="20" as="geometry" />
        </mxCell>
        <mxCell id="2Su23uGdI_CXdrzCFfWL-29" value="master" style="text;html=1;strokeColor=#314354;fillColor=#647687;align=center;verticalAlign=middle;whiteSpace=wrap;overflow=hidden;fontSize=14;fontStyle=1;fontFamily=Courier New;fontColor=#ffffff;" parent="1" vertex="1">
          <mxGeometry x="80" y="260" width="120" height="20" as="geometry" />
        </mxCell>
        <mxCell id="2Su23uGdI_CXdrzCFfWL-30" value="" style="endArrow=none;dashed=1;html=1;dashPattern=1 3;strokeWidth=2;rounded=0;fontColor=#B85450;exitX=1;exitY=0.5;exitDx=0;exitDy=0;strokeColor=#314354;fillColor=#647687;startArrow=none;" parent="1" edge="1">
          <mxGeometry width="50" height="50" relative="1" as="geometry">
            <mxPoint x="225" y="260" as="sourcePoint" />
            <mxPoint x="920" y="260" as="targetPoint" />
          </mxGeometry>
        </mxCell>
        <mxCell id="2Su23uGdI_CXdrzCFfWL-31" value="" style="verticalLabelPosition=bottom;verticalAlign=top;html=1;strokeWidth=4;shape=mxgraph.flowchart.on-page_reference;fillColor=#647687;strokeColor=#314354;fontColor=#ffffff;" parent="1" vertex="1">
          <mxGeometry x="225" y="255" width="30" height="30" as="geometry" />
        </mxCell>
        <mxCell id="2Su23uGdI_CXdrzCFfWL-32" value="" style="edgeStyle=orthogonalEdgeStyle;shape=connector;curved=1;rounded=0;orthogonalLoop=1;jettySize=auto;html=1;labelBackgroundColor=default;fontFamily=Helvetica;fontSize=15;fontColor=default;endArrow=none;endFill=0;strokeColor=default;strokeWidth=4;entryX=0;entryY=0.5;entryDx=0;entryDy=0;entryPerimeter=0;exitX=0.5;exitY=1;exitDx=0;exitDy=0;exitPerimeter=0;" parent="1" source="2Su23uGdI_CXdrzCFfWL-31" edge="1">
          <mxGeometry relative="1" as="geometry">
            <mxPoint x="270" y="356" as="targetPoint" />
            <Array as="points">
              <mxPoint x="240" y="356" />
            </Array>
            <mxPoint x="236" y="290" as="sourcePoint" />
          </mxGeometry>
        </mxCell>
        <mxCell id="2Su23uGdI_CXdrzCFfWL-33" value="Tag: 1.0.0" style="text;html=1;strokeColor=#666666;fillColor=#f5f5f5;align=center;verticalAlign=middle;whiteSpace=wrap;overflow=hidden;fontSize=14;fontColor=#333333;" parent="1" vertex="1">
          <mxGeometry x="205" y="80" width="70" height="20" as="geometry" />
        </mxCell>
        <mxCell id="2Su23uGdI_CXdrzCFfWL-34" value="" style="endArrow=none;dashed=1;html=1;dashPattern=1 3;strokeWidth=2;rounded=0;fontColor=#B85450;exitX=1;exitY=0.5;exitDx=0;exitDy=0;strokeColor=#666666;" parent="1" target="2Su23uGdI_CXdrzCFfWL-33" edge="1">
          <mxGeometry width="50" height="50" relative="1" as="geometry">
            <mxPoint x="201.25" y="90" as="sourcePoint" />
            <mxPoint x="388.25" y="90" as="targetPoint" />
          </mxGeometry>
        </mxCell>
        <mxCell id="2Su23uGdI_CXdrzCFfWL-35" value="" style="edgeStyle=orthogonalEdgeStyle;curved=1;rounded=0;orthogonalLoop=1;jettySize=auto;html=1;entryX=0.5;entryY=0;entryDx=0;entryDy=0;entryPerimeter=0;" parent="1" target="2Su23uGdI_CXdrzCFfWL-31" edge="1">
          <mxGeometry relative="1" as="geometry">
            <mxPoint x="239.79999999999995" y="100" as="sourcePoint" />
            <mxPoint x="239.79999999999995" y="155" as="targetPoint" />
          </mxGeometry>
        </mxCell>
        <mxCell id="2Su23uGdI_CXdrzCFfWL-36" value="" style="verticalLabelPosition=bottom;verticalAlign=top;html=1;strokeWidth=4;shape=mxgraph.flowchart.on-page_reference;strokeColor=#2D7600;fillColor=#c4ac36;fontColor=#ffffff;" parent="1" vertex="1">
          <mxGeometry x="355" y="225" width="30" height="30" as="geometry" />
        </mxCell>
        <mxCell id="2Su23uGdI_CXdrzCFfWL-37" value="" style="verticalLabelPosition=bottom;verticalAlign=top;html=1;strokeWidth=4;shape=mxgraph.flowchart.on-page_reference;strokeColor=#2D7600;fillColor=#c4ac36;fontColor=#ffffff;" parent="1" vertex="1">
          <mxGeometry x="470" y="230" width="30" height="30" as="geometry" />
        </mxCell>
        <mxCell id="2Su23uGdI_CXdrzCFfWL-38" value="" style="edgeStyle=orthogonalEdgeStyle;rounded=0;html=1;jettySize=auto;orthogonalLoop=1;strokeWidth=4;endArrow=none;endFill=0;exitX=1;exitY=0.5;exitDx=0;exitDy=0;entryX=0;entryY=0.5;entryDx=0;entryDy=0;entryPerimeter=0;exitPerimeter=0;" parent="1" source="2Su23uGdI_CXdrzCFfWL-36" target="2Su23uGdI_CXdrzCFfWL-37" edge="1">
          <mxGeometry x="404.5" y="320" as="geometry">
            <mxPoint x="210" y="370" as="sourcePoint" />
            <mxPoint x="280" y="370" as="targetPoint" />
            <Array as="points">
              <mxPoint x="470" y="240" />
            </Array>
          </mxGeometry>
        </mxCell>
        <mxCell id="2Su23uGdI_CXdrzCFfWL-39" value="" style="endArrow=none;dashed=1;html=1;dashPattern=1 3;strokeWidth=2;rounded=0;fontColor=#E1D5E7;strokeColor=#9933FF;" parent="1" source="2Su23uGdI_CXdrzCFfWL-13" target="2Su23uGdI_CXdrzCFfWL-40" edge="1">
          <mxGeometry width="50" height="50" relative="1" as="geometry">
            <mxPoint x="201" y="514" as="sourcePoint" />
            <mxPoint x="1141.25" y="515.0000000000001" as="targetPoint" />
            <Array as="points" />
          </mxGeometry>
        </mxCell>
        <mxCell id="2Su23uGdI_CXdrzCFfWL-40" value="" style="verticalLabelPosition=bottom;verticalAlign=top;html=1;strokeWidth=4;shape=mxgraph.flowchart.on-page_reference;plain-purple;gradientColor=none;strokeColor=#000000;fillColor=#9933FF;" parent="1" vertex="1">
          <mxGeometry x="630" y="500" width="30" height="30" as="geometry" />
        </mxCell>
        <mxCell id="2Su23uGdI_CXdrzCFfWL-41" value="" style="endArrow=none;dashed=1;html=1;dashPattern=1 3;strokeWidth=2;rounded=0;fontColor=#E1D5E7;strokeColor=#9933FF;" parent="1" source="2Su23uGdI_CXdrzCFfWL-40" target="2Su23uGdI_CXdrzCFfWL-42" edge="1">
          <mxGeometry width="50" height="50" relative="1" as="geometry">
            <mxPoint x="640" y="514" as="sourcePoint" />
            <mxPoint x="1141.25" y="515.0000000000001" as="targetPoint" />
            <Array as="points" />
          </mxGeometry>
        </mxCell>
        <mxCell id="2Su23uGdI_CXdrzCFfWL-42" value="" style="verticalLabelPosition=bottom;verticalAlign=top;html=1;strokeWidth=4;shape=mxgraph.flowchart.on-page_reference;plain-purple;gradientColor=none;strokeColor=#000000;fillColor=#9933FF;" parent="1" vertex="1">
          <mxGeometry x="680" y="500" width="30" height="30" as="geometry" />
        </mxCell>
        <mxCell id="2Su23uGdI_CXdrzCFfWL-43" style="edgeStyle=orthogonalEdgeStyle;curved=1;rounded=0;html=1;endArrow=none;endFill=0;jettySize=auto;orthogonalLoop=1;strokeWidth=4;fontSize=15;exitX=0.855;exitY=0.855;exitDx=0;exitDy=0;exitPerimeter=0;" parent="1" source="2Su23uGdI_CXdrzCFfWL-47" edge="1">
          <mxGeometry relative="1" as="geometry">
            <mxPoint x="620" y="370" as="sourcePoint" />
            <mxPoint x="600" y="360" as="targetPoint" />
            <Array as="points">
              <mxPoint x="596" y="360" />
            </Array>
          </mxGeometry>
        </mxCell>
        <mxCell id="2Su23uGdI_CXdrzCFfWL-44" value="feature/ajouter_fonction_b" style="text;html=1;strokeColor=#2D7600;fillColor=#C4AC36;align=left;verticalAlign=middle;whiteSpace=wrap;overflow=hidden;fontSize=14;fontStyle=1;fontFamily=Courier New;fontColor=#ffffff;" parent="1" vertex="1">
          <mxGeometry x="340" y="200" width="230" height="20" as="geometry" />
        </mxCell>
        <mxCell id="2Su23uGdI_CXdrzCFfWL-45" value="" style="edgeStyle=orthogonalEdgeStyle;rounded=0;html=1;jettySize=auto;orthogonalLoop=1;plain-blue;endArrow=none;endFill=0;strokeWidth=4;strokeColor=#000000;" parent="1" source="2Su23uGdI_CXdrzCFfWL-5" target="2Su23uGdI_CXdrzCFfWL-47" edge="1">
          <mxGeometry x="504.5" y="320" as="geometry">
            <mxPoint x="460" y="360" as="sourcePoint" />
            <mxPoint x="805" y="360" as="targetPoint" />
          </mxGeometry>
        </mxCell>
        <mxCell id="2Su23uGdI_CXdrzCFfWL-46" value="" style="edgeStyle=orthogonalEdgeStyle;curved=1;rounded=0;html=1;endArrow=none;endFill=0;jettySize=auto;orthogonalLoop=1;strokeWidth=4;fontSize=15;entryX=0.5;entryY=0;entryDx=0;entryDy=0;entryPerimeter=0;exitX=1.133;exitY=0.233;exitDx=0;exitDy=0;exitPerimeter=0;" parent="1" edge="1">
          <mxGeometry relative="1" as="geometry">
            <mxPoint x="503.99" y="241.99" as="sourcePoint" />
            <mxPoint x="915" y="350" as="targetPoint" />
            <Array as="points">
              <mxPoint x="504" y="240" />
              <mxPoint x="910" y="240" />
              <mxPoint x="910" y="350" />
            </Array>
          </mxGeometry>
        </mxCell>
        <mxCell id="2Su23uGdI_CXdrzCFfWL-47" value="" style="verticalLabelPosition=bottom;verticalAlign=top;html=1;strokeWidth=4;shape=mxgraph.flowchart.on-page_reference;plain-blue;gradientColor=none;fillColor=#B5E3Fe;strokeColor=#000000;" parent="1" vertex="1">
          <mxGeometry x="590" y="345" width="30" height="30" as="geometry" />
        </mxCell>
        <mxCell id="2Su23uGdI_CXdrzCFfWL-48" value="" style="edgeStyle=orthogonalEdgeStyle;curved=1;rounded=0;orthogonalLoop=1;jettySize=auto;html=1;endArrow=none;endFill=0;strokeWidth=4;fontFamily=Courier New;fontSize=16;entryX=0.145;entryY=0.855;entryDx=0;entryDy=0;entryPerimeter=0;" parent="1" source="2Su23uGdI_CXdrzCFfWL-15" target="2Su23uGdI_CXdrzCFfWL-36" edge="1">
          <mxGeometry relative="1" as="geometry">
            <mxPoint x="363" y="270" as="targetPoint" />
            <Array as="points">
              <mxPoint x="280" y="290" />
              <mxPoint x="310" y="290" />
              <mxPoint x="310" y="251" />
            </Array>
            <mxPoint x="280" y="340" as="sourcePoint" />
          </mxGeometry>
        </mxCell>
        <mxCell id="2Su23uGdI_CXdrzCFfWL-49" value="" style="edgeStyle=orthogonalEdgeStyle;rounded=0;html=1;jettySize=auto;orthogonalLoop=1;plain-blue;endArrow=none;endFill=0;strokeWidth=4;strokeColor=#000000;entryX=1;entryY=0.5;entryDx=0;entryDy=0;entryPerimeter=0;" parent="1" source="2Su23uGdI_CXdrzCFfWL-51" target="2Su23uGdI_CXdrzCFfWL-6" edge="1">
          <mxGeometry x="504.5" y="320" as="geometry">
            <mxPoint x="980" y="360" as="sourcePoint" />
            <mxPoint x="815" y="370" as="targetPoint" />
          </mxGeometry>
        </mxCell>
        <mxCell id="2Su23uGdI_CXdrzCFfWL-50" value="" style="edgeStyle=orthogonalEdgeStyle;rounded=0;html=1;jettySize=auto;orthogonalLoop=1;plain-blue;endArrow=none;endFill=0;strokeWidth=4;strokeColor=#000000;entryX=1;entryY=0.5;entryDx=0;entryDy=0;entryPerimeter=0;" parent="1" target="2Su23uGdI_CXdrzCFfWL-51" edge="1">
          <mxGeometry x="504.5" y="320" as="geometry">
            <mxPoint x="980" y="360" as="sourcePoint" />
            <mxPoint x="835" y="360" as="targetPoint" />
          </mxGeometry>
        </mxCell>
        <mxCell id="2Su23uGdI_CXdrzCFfWL-51" value="" style="verticalLabelPosition=bottom;verticalAlign=top;html=1;strokeWidth=4;shape=mxgraph.flowchart.on-page_reference;plain-blue;gradientColor=none;strokeColor=#000000;" parent="1" vertex="1">
          <mxGeometry x="900" y="345" width="30" height="30" as="geometry" />
        </mxCell>
      </root>
    </mxGraphModel>
  </diagram>
</mxfile>
